<svg xmlns="http://www.w3.org/2000/svg" style="display:none"><symbol id="chat" viewBox="0 0 25.997 22.001"><path fill-rule="evenodd" clip-rule="evenodd" d="M24.998 19.006s-2.7.01-5.014.01c.01.959.008 2.472-.013 2.61-.04.259-.684.51-.958.292-.697-.578-1.015-1.197-2.077-2.912h-4.938c-.827 0-.985-.321-.985-1.153v-.867c.242.01 1.033.028 1.033.028l-.034.977 5.923.011 1.063 2v-1.994h6V9.021h-6.02v-.984H24.5c.827 0 1.497.331 1.497 1.163v8.654c0 .832-.172 1.152-.999 1.152zm-13.985-2.025H9.404c-.692.61-1.972 1.731-2.668 2.308-.275.219-.888-.032-.928-.291-.021-.138-.023-1.058-.013-2.017H1.123c-.827 0-1.122-.3-1.122-1.132V1.101C0 .269.139 0 .966 0h16.982c.827 0 1.029.238 1.029 1.069v14.156c0 .832-.764 1.756-1.591 1.756h-6.373v.005c-.084-.003-.103-.005 0-.005zm6.94-1l.034-14.954-16.986.01v14.944h5.945l.012 1.96 2.02-1.96h8.975zM4.654 11.585v-.043c0-.284.229-.545.511-.545h9.065c.282 0 .511.279.511.563v.025c0 .284-.229.443-.511.443H5.166c-.283 0-.512-.159-.512-.443zm7.33-5.55H5.166c-.282 0-.511-.159-.511-.443v-.044c0-.284.229-.545.511-.545h6.819c.282 0 .511.279.511.563v.025c0 .284-.229.444-.512.444zm-6.818 1.98h4.573c.282 0 .511.248.511.532v.025c0 .284-.229.443-.511.443H5.166c-.282 0-.511-.159-.511-.443v-.043a.512.512 0 0 1 .511-.514z"/></symbol><symbol id="companies" viewBox="0 0 21 24"><path d="M9.5 24h-8C.673 24 0 23.327 0 22.5v-21C0 .673.673 0 1.5 0h8c.827 0 1.5.673 1.5 1.5v21c0 .827-.673 1.5-1.5 1.5zm-8-23a.5.5 0 0 0-.5.5v21a.5.5 0 0 0 .5.5h8a.5.5 0 0 0 .5-.5v-21a.5.5 0 0 0-.5-.5h-8z"/><path d="M7 7H4V4h3v3zM7 13.5H4v-3h3v3zM7 20H4v-3h3v3zM19.5 24h-8c-.827 0-1.5-.673-1.5-1.5v-15c0-.827.673-1.5 1.5-1.5h8c.827 0 1.5.673 1.5 1.5v15c0 .827-.673 1.5-1.5 1.5zm-8-17a.5.5 0 0 0-.5.5v15a.5.5 0 0 0 .5.5h8a.5.5 0 0 0 .5-.5v-15a.5.5 0 0 0-.5-.5h-8z"/><path d="M17 13.5h-3v-3h3v3zM17 20h-3v-3h3v3zM9.624 23.419H11.5V24H9.624v-.581zM10.623 6.59H12V6h-1.377v.59z"/></symbol><symbol id="house" viewBox="0 0 23.876 23.003"><path d="M19.463 12.703c-.391 0-.581.307-.581.708v8.572h-3.983V17.63c0-.37-.303-.694-.669-.694H9.574a.708.708 0 0 0-.707.694v4.352H4.872v-8.655c0-.373-.002-.617-.394-.617-.366 0-.604.244-.604.617v8.994c0 .373.303.683.669.683h4.695c.366 0 .669-.31.669-.683v-4.197H13.9v4.197c0 .373.303.683.695.683h4.632c.366 0 .669-.31.669-.683v-8.91c0-.401-.066-.708-.433-.708z"/><path d="M23.774 11.85l-5.868-5.854V1.799c0-.397-.109-.573-.5-.573-.366 0-.532.197-.532.594v2.978L12.397.219A.66.66 0 0 0 11.93 0a.682.682 0 0 0-.492.219L.086 11.773c-.272.277.164.549.455.804.252.296.814-.28 1.086-.556l10.272-10.97 10.684 11.317c.113.115.327.282.542.282.189 0 .204.069.343-.046.253-.257.577-.475.306-.754z"/></symbol><symbol id="list" viewBox="0 0 19 24"><path d="M17.5 24h-16C.673 24 0 23.327 0 22.5v-21C0 .673.673 0 1.5 0h16c.827 0 1.5.673 1.5 1.5v21c0 .827-.673 1.5-1.5 1.5zM1.5 1a.5.5 0 0 0-.5.5v21a.5.5 0 0 0 .5.5h16a.5.5 0 0 0 .5-.5v-21a.5.5 0 0 0-.5-.5h-16z"/><path d="M16 9H3V7h13v2zM16 5H7V3h9v2zM16 21H3v-2h13v2zM16 17H3v-2h13v2zM16 13H3v-2h13v2z"/></symbol><symbol id="message" viewBox="0 0 23.998 24.002"><path fill-rule="evenodd" clip-rule="evenodd" d="M23.919 20.673a.7.7 0 0 1-.642.375H.733a.697.697 0 0 1-.642-.375C.025 20.558 0 20.296 0 20.179c0-.142.055-.27.144-.401a16.342 16.342 0 0 0 2.108-4.37c.479-1.54 1.363-3.505 1.744-6.413.221-1.693.468-3.385 1.241-4.303a7.454 7.454 0 0 1 1.335-1.241c1.007-.726 1.82-1.06 2.763-1.332.13-.607.445-1.112.942-1.512A2.677 2.677 0 0 1 11.993 0c.654 0 1.228.21 1.728.608.508.404.825.905.956 1.512a8.248 8.248 0 0 1 2.75 1.332c.507.366.948.781 1.335 1.241.779.924 1.481 2.353 1.702 4.047.381 2.908.806 5.134 1.283 6.67.479 1.541 1.183 3.162 2.121 4.527a.666.666 0 0 1 .131.388.851.851 0 0 1-.08.348zm-3.757-5.587c-.419-1.564-.8-3.619-1.152-6.166-.198-1.435-.765-2.633-1.44-3.413a6.055 6.055 0 0 0-1.166-1.021c-.88-.603-1.665-.881-2.566-1.099a.717.717 0 0 1-.563-.685v-.026c0-.685-.563-1.241-1.283-1.241-.694 0-1.283.555-1.283 1.241v.026a.69.69 0 0 1-.537.685c-.905.2-1.677.508-2.58 1.099-1.27.832-2.287 2.222-2.604 4.434-.364 2.545-.739 4.613-1.151 6.179-.412 1.563-1.056 3.566-1.841 4.897h20c-.787-1.344-1.415-3.346-1.834-4.91zm-6.658 8.285a2.015 2.015 0 0 1-1.502.631 2.077 2.077 0 0 1-1.516-.631 2.01 2.01 0 0 1-.626-1.483h4.269c.001.576-.215 1.064-.625 1.483z"/></symbol><symbol id="question" viewBox="0 0 24.013 23.644"><path d="M24.006 2.37c0-2.61.251-2.363-2.4-2.363h-19.2C-.245.007.006-.24.006 2.37v18.905c0 2.61-.251 2.363 2.4 2.363h19.2c2.651 0 2.4.247 2.4-2.363V2.37zm-1.012 20.429H1.019V.813h21.975v21.986z"/><path d="M11.097 16.786h1.759v1.991h-1.759zM10.005 8.775a2.36 2.36 0 0 1 .441-.883c.201-.249.389-.464.689-.611.299-.147.506-.2.921-.2.622 0 1.298.172 1.661.523.363.351.438.838.484 1.461.051.934-.276 1.31-.786 1.894-.223.255-1.145 1.151-1.362 1.402-.225.26-.398.542-.553.875a3.313 3.313 0 0 0-.289 1.231v.881h1.742v-.663c0-.294.043-.64.129-.872.087-.232.201-.447.345-.646.144-.198.139-.385.317-.561.178-.175.441-.348.625-.518.184-.181.44-.368.619-.561.179-.192.233-.402.371-.628.138-.227.082-.478.168-.756.086-.277.234-.592.234-.943 0-.543-.056-1.025-.234-1.444a3.158 3.158 0 0 0-.772-1.098c-.323-.289-.78-.64-1.223-.793-.443-.153-.936-.192-1.477-.192a3.97 3.97 0 0 0-1.59.306c-.484.204-.796.51-1.13.878-.334.367-.586.911-.764 1.409-.179.498-.225.948-.214 1.526h1.509c0-.397.046-.677.139-1.017z"/></symbol><symbol id="search" viewBox="0 0 15.97 15.99"><path fill-rule="evenodd" clip-rule="evenodd" fill="#8FBC4C" d="M15.802 15.004l-3.909-3.878a6.733 6.733 0 0 0 1.6-4.366c0-3.733-3.02-6.76-6.746-6.76C3.021 0 0 3.026 0 6.76c0 3.733 3.021 6.76 6.747 6.76a6.71 6.71 0 0 0 4.329-1.578l3.911 3.88a.576.576 0 1 0 .815-.818zm-9.039-2.666c-3.063 0-5.547-2.491-5.547-5.564S3.7 1.21 6.763 1.21c3.064 0 5.547 2.491 5.547 5.564s-2.484 5.564-5.547 5.564z"/></symbol></svg>